<?xml version="1.0" encoding="utf-8"?>
<?xml-stylesheet type="text/xsl" href="rss1.xsl"?>
<rss version="2.0" xmlns:atom="http://www.w3.org/2005/Atom" xmlns:content="http://purl.org/rss/1.0/modules/content/" xmlns:dc="http://purl.org/dc/elements/1.1/" xmlns:media="http://search.yahoo.com/mrss/">
<channel>
 <title>Getty</title>
 <link>http://www.gettyimg.com/</link>
 <atom:link href="http://www.gettyimg.com/" rel="self" type="application/rss+xml" />

 
                <item>
                <title><![CDATA[【Requests】[REQ AUD] - Shelter (Music From The Here! Original Film) OST]]></title>
                <link><![CDATA[https://sharemania.us/threads/shelter-music-from-the-here-original-film-ost.240677/]]></link>
                <description><![CDATA[<article>
<blockquote class="messageText SelectQuoteContainer ugc baseHtml">
Hi all !<br>
I know this is very, very hard, but I'm trying !<br>
I'm looking for the Shelter soundtrack in flac or Wav.<br>
<br>
<a href="https://www.discogs.com/it/release/7550871-Various-Shelter-Music-From-The-Here-Original-Film" target="_blank" class="externalLink" rel="nofollow">https://www.discogs.com/it/release/7550871-Various-Shelter-Music-From-The-Here-Original-Film</a><br>
1 Shane Mack– Lie To Me<br>
2 Shane Mack– More Than This<br>
3 Todd Hannigan – Reflections<br>
4 Matthew Popieluch– Darkness Descends<br>
5 Brett Cookingham &amp; Matt Pavolaitis – No One's Home<br>
6 Stewart Lewis – Time To Time<br>
7 Dance Yourself To Death - Teenage Romanticide<br>
8 The Vengers – What Do You Believe In<br>
9 J. Peter Robinson*– Zach Conflicted<br>
10 Shane Mack – I Like That<br>
11 Matthew Popieluch*- Pirate Sounds<br>
12 Shane Mack – Take The Long Way Home<br>
13 Bill Ferguson – Goin' Home<br>
14 J. Peter Robinson* – Sad Montage<br>
<br>
Thanks a lot for any help !
<div class="messageTextEndMarker">&nbsp;</div>
</blockquote>
</article>]]></description>
                <author><![CDATA[Angel_0]]></author>
                </item>

                
                <item>
                <title><![CDATA[【Music Videos】El Símbolo - No Te Preocupes (1080p) (Clean)]]></title>
                <link><![CDATA[https://sharemania.us/threads/el-s%C3%ADmbolo-no-te-preocupes-1080p-clean.240676/]]></link>
                <description><![CDATA[<article>
<blockquote class="messageText SelectQuoteContainer ugc baseHtml">
<img src="https://i.ibb.co/r7rZ8k0/El-S-mbolo-No-Te-Preocupes-1080p-mp4-thumbs-2024-03-24-15-06-39.jpg" class="bbCodeImage LbImage" alt="[​IMG]" data-url="https://i.ibb.co/r7rZ8k0/El-S-mbolo-No-Te-Preocupes-1080p-mp4-thumbs-2024-03-24-15-06-39.jpg" style=""> <br>
<br>
<div class="ToggleTriggerAnchor bbCodeSpoilerContainer">
<button type="button" class="button bbCodeSpoilerButton ToggleTrigger Tooltip JsOnly" data-target="> .SpoilerTarget"><span>Spoiler: <span class="SpoilerTitle">MediaInfo</span></span></button>
<div class="SpoilerTarget bbCodeSpoilerText">El Símbolo - No Te Preocupes (1080p).mp4<br>
Format : MPEG-4<br>
Format profile : Base Media / Version 2<br>
Codec ID : mp42 (mp42/mp41)<br>
File size : 348 MiB<br>
Duration : 3 min 56 s<br>
Overall bit rate mode : Variable<br>
Overall bit rate : 12.3 Mb/s<br>
Frame rate : 60.000 FPS<br>
Encoded date : 2024-03-24 05:22:17 UTC<br>
Tagged date : 2024-03-24 05:22:39 UTC<br>
TIM : 00:00:00:00<br>
TSC : 60<br>
TSZ : 1<br>
<br>
Video<br>
ID : 1<br>
Format : AVC<br>
Format/Info : Advanced Video Codec<br>
Format profile : Main@L4.2<br>
Format settings : CABAC / 4 Ref Frames<br>
Format settings, CABAC : Yes<br>
Format settings, Reference : 4 frames<br>
Format settings, GOP : M=1, N=2<br>
Codec ID : avc1<br>
Codec ID/Info : Advanced Video Coding<br>
Duration : 3 min 56 s<br>
Bit rate : 12.0 Mb/s<br>
Width : 1 920 pixels<br>
Height : 1 080 pixels<br>
Display aspect ratio : 16:9<br>
Frame rate mode : Constant<br>
Frame rate : 60.000 FPS<br>
Color space : YUV<br>
Chroma subsampling : 4:2:0<br>
Bit depth : 8 bits<br>
Scan type : Progressive<br>
Bits/(Pixel*Frame) : 0.096<br>
Stream size : 339 MiB (97%)<br>
Language : English<br>
Encoded date : 2024-03-24 05:22:17 UTC<br>
Tagged date : 2024-03-24 05:22:17 UTC<br>
Color range : Limited<br>
Color primaries : BT.709<br>
Transfer characteristics : BT.709<br>
Matrix coefficients : BT.709<br>
Codec configuration box : avcC<br>
<br>
Audio<br>
ID : 2<br>
Format : AAC LC<br>
Format/Info : Advanced Audio Codec Low Complexity<br>
Codec ID : mp4a-40-2<br>
Duration : 3 min 56 s<br>
Source duration : 3 min 56 s<br>
Bit rate mode : Variable<br>
Bit rate : 317 kb/s<br>
Maximum bit rate : 423 kb/s<br>
Channel(s) : 2 channels<br>
Channel layout : L R<br>
Sampling rate : 48.0 kHz<br>
Frame rate : 46.875 FPS (1024 SPF)<br>
Compression mode : Lossy<br>
Stream size : 8.96 MiB (3%)<br>
Source stream size : 8.97 MiB (3%)<br>
Language : English<br>
Encoded date : 2024-03-24 05:22:17 UTC<br>
Tagged date : 2024-03-24 05:22:17 UTC</div>
</div><br>
<div class="bbCodeBlock bbCodeVfcHH HiddenContent">
<div class="attribution type">Hidden Content:</div>
<blockquote>You must reply before you can see the hidden data contained here.</blockquote>
</div>
<div class="messageTextEndMarker">&nbsp;</div>
</blockquote>
</article>]]></description>
                <author><![CDATA[DJ-RoGeRs-BS]]></author>
                </item>

                </channel></rss>